<mxfile host="app.diagrams.net" agent="Mozilla/5.0 (Windows NT 10.0; Win64; x64; rv:135.0) Gecko/20100101 Firefox/135.0" version="26.0.16">
  <diagram name="Page-1" id="y3o_-qBR03SZ4zwNevrx">
    <mxGraphModel grid="1" page="1" gridSize="10" guides="1" tooltips="1" connect="1" arrows="1" fold="1" pageScale="1" pageWidth="850" pageHeight="1100" math="0" shadow="0">
      <root>
        <mxCell id="0" />
        <mxCell id="1" parent="0" />
        <mxCell id="8rW_p4K-CDQeqq16cBs7-1" value="NodeProg" style="ellipse;whiteSpace=wrap;html=1;aspect=fixed;" vertex="1" parent="1">
          <mxGeometry x="320" y="60" width="80" height="80" as="geometry" />
        </mxCell>
        <mxCell id="8rW_p4K-CDQeqq16cBs7-12" style="rounded=0;orthogonalLoop=1;jettySize=auto;html=1;" edge="1" parent="1" source="8rW_p4K-CDQeqq16cBs7-2" target="8rW_p4K-CDQeqq16cBs7-9">
          <mxGeometry relative="1" as="geometry" />
        </mxCell>
        <mxCell id="8rW_p4K-CDQeqq16cBs7-88" value="stmt" style="edgeLabel;html=1;align=center;verticalAlign=middle;resizable=0;points=[];" vertex="1" connectable="0" parent="8rW_p4K-CDQeqq16cBs7-12">
          <mxGeometry x="-0.1258" y="-2" relative="1" as="geometry">
            <mxPoint as="offset" />
          </mxGeometry>
        </mxCell>
        <mxCell id="8rW_p4K-CDQeqq16cBs7-2" value="NodeStmt" style="ellipse;whiteSpace=wrap;html=1;aspect=fixed;" vertex="1" parent="1">
          <mxGeometry x="320" y="210" width="80" height="80" as="geometry" />
        </mxCell>
        <mxCell id="8rW_p4K-CDQeqq16cBs7-3" value="" style="endArrow=classic;html=1;rounded=0;exitX=0.5;exitY=1;exitDx=0;exitDy=0;" edge="1" parent="1" source="8rW_p4K-CDQeqq16cBs7-1" target="8rW_p4K-CDQeqq16cBs7-2">
          <mxGeometry width="50" height="50" relative="1" as="geometry">
            <mxPoint x="400" y="420" as="sourcePoint" />
            <mxPoint x="450" y="370" as="targetPoint" />
          </mxGeometry>
        </mxCell>
        <mxCell id="8rW_p4K-CDQeqq16cBs7-4" value="&lt;div&gt;stmts*&lt;/div&gt;" style="edgeLabel;html=1;align=center;verticalAlign=middle;resizable=0;points=[];" vertex="1" connectable="0" parent="8rW_p4K-CDQeqq16cBs7-3">
          <mxGeometry x="-0.1111" y="2" relative="1" as="geometry">
            <mxPoint as="offset" />
          </mxGeometry>
        </mxCell>
        <mxCell id="8rW_p4K-CDQeqq16cBs7-24" style="rounded=0;orthogonalLoop=1;jettySize=auto;html=1;entryX=0.5;entryY=0;entryDx=0;entryDy=0;" edge="1" parent="1" source="8rW_p4K-CDQeqq16cBs7-8" target="8rW_p4K-CDQeqq16cBs7-20">
          <mxGeometry relative="1" as="geometry" />
        </mxCell>
        <mxCell id="8rW_p4K-CDQeqq16cBs7-25" value="identifier" style="edgeLabel;html=1;align=center;verticalAlign=middle;resizable=0;points=[];" vertex="1" connectable="0" parent="8rW_p4K-CDQeqq16cBs7-24">
          <mxGeometry x="-0.1" y="5" relative="1" as="geometry">
            <mxPoint x="-5" y="-218" as="offset" />
          </mxGeometry>
        </mxCell>
        <mxCell id="8rW_p4K-CDQeqq16cBs7-26" style="rounded=0;orthogonalLoop=1;jettySize=auto;html=1;" edge="1" parent="1" source="8rW_p4K-CDQeqq16cBs7-8" target="8rW_p4K-CDQeqq16cBs7-21">
          <mxGeometry relative="1" as="geometry" />
        </mxCell>
        <mxCell id="8rW_p4K-CDQeqq16cBs7-27" value="expr" style="edgeLabel;html=1;align=center;verticalAlign=middle;resizable=0;points=[];" vertex="1" connectable="0" parent="8rW_p4K-CDQeqq16cBs7-26">
          <mxGeometry x="-0.0866" y="-3" relative="1" as="geometry">
            <mxPoint as="offset" />
          </mxGeometry>
        </mxCell>
        <mxCell id="8rW_p4K-CDQeqq16cBs7-8" value="NodeStmtLet" style="ellipse;whiteSpace=wrap;html=1;aspect=fixed;" vertex="1" parent="1">
          <mxGeometry x="80" y="340" width="80" height="80" as="geometry" />
        </mxCell>
        <mxCell id="8rW_p4K-CDQeqq16cBs7-22" style="rounded=0;orthogonalLoop=1;jettySize=auto;html=1;" edge="1" parent="1" source="8rW_p4K-CDQeqq16cBs7-9" target="8rW_p4K-CDQeqq16cBs7-21">
          <mxGeometry relative="1" as="geometry" />
        </mxCell>
        <mxCell id="8rW_p4K-CDQeqq16cBs7-23" value="expr" style="edgeLabel;html=1;align=center;verticalAlign=middle;resizable=0;points=[];" vertex="1" connectable="0" parent="8rW_p4K-CDQeqq16cBs7-22">
          <mxGeometry x="-0.2095" y="3" relative="1" as="geometry">
            <mxPoint as="offset" />
          </mxGeometry>
        </mxCell>
        <mxCell id="8rW_p4K-CDQeqq16cBs7-9" value="NodeStmtExit" style="ellipse;whiteSpace=wrap;html=1;aspect=fixed;" vertex="1" parent="1">
          <mxGeometry x="270" y="340" width="80" height="80" as="geometry" />
        </mxCell>
        <mxCell id="8rW_p4K-CDQeqq16cBs7-29" style="rounded=0;orthogonalLoop=1;jettySize=auto;html=1;" edge="1" parent="1" source="8rW_p4K-CDQeqq16cBs7-10" target="8rW_p4K-CDQeqq16cBs7-28">
          <mxGeometry relative="1" as="geometry" />
        </mxCell>
        <mxCell id="8rW_p4K-CDQeqq16cBs7-30" value="ifBranch" style="edgeLabel;html=1;align=center;verticalAlign=middle;resizable=0;points=[];" vertex="1" connectable="0" parent="8rW_p4K-CDQeqq16cBs7-29">
          <mxGeometry x="0.007" y="2" relative="1" as="geometry">
            <mxPoint x="-7" y="1" as="offset" />
          </mxGeometry>
        </mxCell>
        <mxCell id="8rW_p4K-CDQeqq16cBs7-32" style="rounded=0;orthogonalLoop=1;jettySize=auto;html=1;entryX=0.5;entryY=0;entryDx=0;entryDy=0;" edge="1" parent="1" source="8rW_p4K-CDQeqq16cBs7-10" target="8rW_p4K-CDQeqq16cBs7-31">
          <mxGeometry relative="1" as="geometry" />
        </mxCell>
        <mxCell id="8rW_p4K-CDQeqq16cBs7-33" value="elifBranches*" style="edgeLabel;html=1;align=center;verticalAlign=middle;resizable=0;points=[];" vertex="1" connectable="0" parent="8rW_p4K-CDQeqq16cBs7-32">
          <mxGeometry x="0.02" y="3" relative="1" as="geometry">
            <mxPoint as="offset" />
          </mxGeometry>
        </mxCell>
        <mxCell id="8rW_p4K-CDQeqq16cBs7-36" style="rounded=0;orthogonalLoop=1;jettySize=auto;html=1;entryX=0.5;entryY=0;entryDx=0;entryDy=0;" edge="1" parent="1" source="8rW_p4K-CDQeqq16cBs7-10" target="8rW_p4K-CDQeqq16cBs7-35">
          <mxGeometry relative="1" as="geometry" />
        </mxCell>
        <mxCell id="8rW_p4K-CDQeqq16cBs7-37" value="elseBranch" style="edgeLabel;html=1;align=center;verticalAlign=middle;resizable=0;points=[];" vertex="1" connectable="0" parent="8rW_p4K-CDQeqq16cBs7-36">
          <mxGeometry x="0.0193" y="-3" relative="1" as="geometry">
            <mxPoint as="offset" />
          </mxGeometry>
        </mxCell>
        <mxCell id="8rW_p4K-CDQeqq16cBs7-10" value="NodeStmtIf" style="ellipse;whiteSpace=wrap;html=1;aspect=fixed;" vertex="1" parent="1">
          <mxGeometry x="480" y="340" width="80" height="80" as="geometry" />
        </mxCell>
        <mxCell id="8rW_p4K-CDQeqq16cBs7-38" style="edgeStyle=orthogonalEdgeStyle;rounded=0;orthogonalLoop=1;jettySize=auto;html=1;entryX=1;entryY=0.5;entryDx=0;entryDy=0;" edge="1" parent="1" source="8rW_p4K-CDQeqq16cBs7-11" target="8rW_p4K-CDQeqq16cBs7-2">
          <mxGeometry relative="1" as="geometry">
            <Array as="points">
              <mxPoint x="780" y="250" />
            </Array>
          </mxGeometry>
        </mxCell>
        <mxCell id="8rW_p4K-CDQeqq16cBs7-39" value="stmts*" style="edgeLabel;html=1;align=center;verticalAlign=middle;resizable=0;points=[];" vertex="1" connectable="0" parent="8rW_p4K-CDQeqq16cBs7-38">
          <mxGeometry x="-0.1812" relative="1" as="geometry">
            <mxPoint as="offset" />
          </mxGeometry>
        </mxCell>
        <mxCell id="8rW_p4K-CDQeqq16cBs7-11" value="NodeScope" style="ellipse;whiteSpace=wrap;html=1;aspect=fixed;" vertex="1" parent="1">
          <mxGeometry x="740" y="340" width="80" height="80" as="geometry" />
        </mxCell>
        <mxCell id="8rW_p4K-CDQeqq16cBs7-14" style="rounded=0;orthogonalLoop=1;jettySize=auto;html=1;" edge="1" parent="1" source="8rW_p4K-CDQeqq16cBs7-2" target="8rW_p4K-CDQeqq16cBs7-8">
          <mxGeometry relative="1" as="geometry">
            <mxPoint x="380" y="320" as="sourcePoint" />
            <mxPoint x="230" y="350" as="targetPoint" />
          </mxGeometry>
        </mxCell>
        <mxCell id="8rW_p4K-CDQeqq16cBs7-87" value="stmt" style="edgeLabel;html=1;align=center;verticalAlign=middle;resizable=0;points=[];" vertex="1" connectable="0" parent="8rW_p4K-CDQeqq16cBs7-14">
          <mxGeometry x="-0.1208" relative="1" as="geometry">
            <mxPoint as="offset" />
          </mxGeometry>
        </mxCell>
        <mxCell id="8rW_p4K-CDQeqq16cBs7-15" style="rounded=0;orthogonalLoop=1;jettySize=auto;html=1;" edge="1" parent="1" source="8rW_p4K-CDQeqq16cBs7-2" target="8rW_p4K-CDQeqq16cBs7-10">
          <mxGeometry relative="1" as="geometry">
            <mxPoint x="359" y="295" as="sourcePoint" />
            <mxPoint x="340" y="350" as="targetPoint" />
          </mxGeometry>
        </mxCell>
        <mxCell id="8rW_p4K-CDQeqq16cBs7-89" value="stmt" style="edgeLabel;html=1;align=center;verticalAlign=middle;resizable=0;points=[];" vertex="1" connectable="0" parent="8rW_p4K-CDQeqq16cBs7-15">
          <mxGeometry x="-0.0969" y="3" relative="1" as="geometry">
            <mxPoint as="offset" />
          </mxGeometry>
        </mxCell>
        <mxCell id="8rW_p4K-CDQeqq16cBs7-16" style="rounded=0;orthogonalLoop=1;jettySize=auto;html=1;" edge="1" parent="1" source="8rW_p4K-CDQeqq16cBs7-2" target="8rW_p4K-CDQeqq16cBs7-11">
          <mxGeometry relative="1" as="geometry">
            <mxPoint x="391" y="294" as="sourcePoint" />
            <mxPoint x="431" y="357" as="targetPoint" />
          </mxGeometry>
        </mxCell>
        <mxCell id="8rW_p4K-CDQeqq16cBs7-90" value="stmt" style="edgeLabel;html=1;align=center;verticalAlign=middle;resizable=0;points=[];" vertex="1" connectable="0" parent="8rW_p4K-CDQeqq16cBs7-16">
          <mxGeometry x="-0.0421" y="1" relative="1" as="geometry">
            <mxPoint as="offset" />
          </mxGeometry>
        </mxCell>
        <mxCell id="8rW_p4K-CDQeqq16cBs7-20" value="Token" style="ellipse;whiteSpace=wrap;html=1;aspect=fixed;" vertex="1" parent="1">
          <mxGeometry x="100" y="1070" width="80" height="80" as="geometry" />
        </mxCell>
        <mxCell id="8rW_p4K-CDQeqq16cBs7-40" style="rounded=0;orthogonalLoop=1;jettySize=auto;html=1;entryX=0.5;entryY=0;entryDx=0;entryDy=0;" edge="1" parent="1" source="8rW_p4K-CDQeqq16cBs7-21" target="8rW_p4K-CDQeqq16cBs7-34">
          <mxGeometry relative="1" as="geometry" />
        </mxCell>
        <mxCell id="8rW_p4K-CDQeqq16cBs7-85" value="expr" style="edgeLabel;html=1;align=center;verticalAlign=middle;resizable=0;points=[];" vertex="1" connectable="0" parent="8rW_p4K-CDQeqq16cBs7-40">
          <mxGeometry x="-0.1435" y="-1" relative="1" as="geometry">
            <mxPoint as="offset" />
          </mxGeometry>
        </mxCell>
        <mxCell id="8rW_p4K-CDQeqq16cBs7-43" style="rounded=0;orthogonalLoop=1;jettySize=auto;html=1;" edge="1" parent="1" source="8rW_p4K-CDQeqq16cBs7-21" target="8rW_p4K-CDQeqq16cBs7-42">
          <mxGeometry relative="1" as="geometry" />
        </mxCell>
        <mxCell id="8rW_p4K-CDQeqq16cBs7-86" value="expr" style="edgeLabel;html=1;align=center;verticalAlign=middle;resizable=0;points=[];" vertex="1" connectable="0" parent="8rW_p4K-CDQeqq16cBs7-43">
          <mxGeometry x="0.0774" relative="1" as="geometry">
            <mxPoint as="offset" />
          </mxGeometry>
        </mxCell>
        <mxCell id="8rW_p4K-CDQeqq16cBs7-21" value="NodeExpr" style="ellipse;whiteSpace=wrap;html=1;aspect=fixed;" vertex="1" parent="1">
          <mxGeometry x="170" y="520" width="80" height="80" as="geometry" />
        </mxCell>
        <mxCell id="8rW_p4K-CDQeqq16cBs7-45" style="rounded=0;orthogonalLoop=1;jettySize=auto;html=1;entryX=1;entryY=0.5;entryDx=0;entryDy=0;" edge="1" parent="1" source="8rW_p4K-CDQeqq16cBs7-28" target="8rW_p4K-CDQeqq16cBs7-21">
          <mxGeometry relative="1" as="geometry" />
        </mxCell>
        <mxCell id="8rW_p4K-CDQeqq16cBs7-46" value="expr" style="edgeLabel;html=1;align=center;verticalAlign=middle;resizable=0;points=[];" vertex="1" connectable="0" parent="8rW_p4K-CDQeqq16cBs7-45">
          <mxGeometry x="-0.125" y="4" relative="1" as="geometry">
            <mxPoint as="offset" />
          </mxGeometry>
        </mxCell>
        <mxCell id="8rW_p4K-CDQeqq16cBs7-47" style="edgeStyle=orthogonalEdgeStyle;rounded=0;orthogonalLoop=1;jettySize=auto;html=1;entryX=0.5;entryY=1;entryDx=0;entryDy=0;exitX=0.5;exitY=1;exitDx=0;exitDy=0;" edge="1" parent="1" source="8rW_p4K-CDQeqq16cBs7-28" target="8rW_p4K-CDQeqq16cBs7-11">
          <mxGeometry relative="1" as="geometry">
            <mxPoint x="450" y="580" as="sourcePoint" />
            <mxPoint x="780" y="440" as="targetPoint" />
            <Array as="points">
              <mxPoint x="410" y="660" />
              <mxPoint x="780" y="660" />
            </Array>
          </mxGeometry>
        </mxCell>
        <mxCell id="8rW_p4K-CDQeqq16cBs7-48" value="scope" style="edgeLabel;html=1;align=center;verticalAlign=middle;resizable=0;points=[];" vertex="1" connectable="0" parent="8rW_p4K-CDQeqq16cBs7-47">
          <mxGeometry x="-0.1672" y="-2" relative="1" as="geometry">
            <mxPoint as="offset" />
          </mxGeometry>
        </mxCell>
        <mxCell id="8rW_p4K-CDQeqq16cBs7-28" value="NodeBranchIf" style="ellipse;whiteSpace=wrap;html=1;aspect=fixed;" vertex="1" parent="1">
          <mxGeometry x="370" y="520" width="80" height="80" as="geometry" />
        </mxCell>
        <mxCell id="8rW_p4K-CDQeqq16cBs7-51" style="edgeStyle=orthogonalEdgeStyle;rounded=0;orthogonalLoop=1;jettySize=auto;html=1;entryX=0.3;entryY=0.975;entryDx=0;entryDy=0;entryPerimeter=0;exitX=0.7;exitY=0.95;exitDx=0;exitDy=0;exitPerimeter=0;" edge="1" parent="1" source="8rW_p4K-CDQeqq16cBs7-31" target="8rW_p4K-CDQeqq16cBs7-11">
          <mxGeometry relative="1" as="geometry">
            <mxPoint x="580" y="610" as="sourcePoint" />
            <mxPoint x="782" y="429.99999999999994" as="targetPoint" />
            <Array as="points">
              <mxPoint x="566" y="641" />
              <mxPoint x="764" y="641" />
            </Array>
          </mxGeometry>
        </mxCell>
        <mxCell id="8rW_p4K-CDQeqq16cBs7-52" value="scope" style="edgeLabel;html=1;align=center;verticalAlign=middle;resizable=0;points=[];" vertex="1" connectable="0" parent="8rW_p4K-CDQeqq16cBs7-51">
          <mxGeometry x="-0.412" y="3" relative="1" as="geometry">
            <mxPoint as="offset" />
          </mxGeometry>
        </mxCell>
        <mxCell id="8rW_p4K-CDQeqq16cBs7-31" value="NodeBranchElif" style="ellipse;whiteSpace=wrap;html=1;aspect=fixed;" vertex="1" parent="1">
          <mxGeometry x="510" y="520" width="80" height="80" as="geometry" />
        </mxCell>
        <mxCell id="8rW_p4K-CDQeqq16cBs7-60" style="rounded=0;orthogonalLoop=1;jettySize=auto;html=1;entryX=0.5;entryY=0;entryDx=0;entryDy=0;" edge="1" parent="1" source="8rW_p4K-CDQeqq16cBs7-34" target="8rW_p4K-CDQeqq16cBs7-59">
          <mxGeometry relative="1" as="geometry" />
        </mxCell>
        <mxCell id="8rW_p4K-CDQeqq16cBs7-91" value="term" style="edgeLabel;html=1;align=center;verticalAlign=middle;resizable=0;points=[];" vertex="1" connectable="0" parent="8rW_p4K-CDQeqq16cBs7-60">
          <mxGeometry x="-0.3667" y="1" relative="1" as="geometry">
            <mxPoint x="8" y="13" as="offset" />
          </mxGeometry>
        </mxCell>
        <mxCell id="8rW_p4K-CDQeqq16cBs7-63" style="rounded=0;orthogonalLoop=1;jettySize=auto;html=1;" edge="1" parent="1" source="8rW_p4K-CDQeqq16cBs7-34" target="8rW_p4K-CDQeqq16cBs7-61">
          <mxGeometry relative="1" as="geometry" />
        </mxCell>
        <mxCell id="8rW_p4K-CDQeqq16cBs7-92" value="term" style="edgeLabel;html=1;align=center;verticalAlign=middle;resizable=0;points=[];" vertex="1" connectable="0" parent="8rW_p4K-CDQeqq16cBs7-63">
          <mxGeometry x="-0.1668" y="2" relative="1" as="geometry">
            <mxPoint as="offset" />
          </mxGeometry>
        </mxCell>
        <mxCell id="8rW_p4K-CDQeqq16cBs7-64" style="rounded=0;orthogonalLoop=1;jettySize=auto;html=1;" edge="1" parent="1" source="8rW_p4K-CDQeqq16cBs7-34" target="8rW_p4K-CDQeqq16cBs7-62">
          <mxGeometry relative="1" as="geometry" />
        </mxCell>
        <mxCell id="8rW_p4K-CDQeqq16cBs7-93" value="term" style="edgeLabel;html=1;align=center;verticalAlign=middle;resizable=0;points=[];" vertex="1" connectable="0" parent="8rW_p4K-CDQeqq16cBs7-64">
          <mxGeometry x="-0.0754" y="4" relative="1" as="geometry">
            <mxPoint y="1" as="offset" />
          </mxGeometry>
        </mxCell>
        <mxCell id="8rW_p4K-CDQeqq16cBs7-34" value="NodeTerm" style="ellipse;whiteSpace=wrap;html=1;aspect=fixed;" vertex="1" parent="1">
          <mxGeometry x="310" y="690" width="80" height="80" as="geometry" />
        </mxCell>
        <mxCell id="8rW_p4K-CDQeqq16cBs7-57" style="rounded=0;orthogonalLoop=1;jettySize=auto;html=1;" edge="1" parent="1" source="8rW_p4K-CDQeqq16cBs7-35" target="8rW_p4K-CDQeqq16cBs7-11">
          <mxGeometry relative="1" as="geometry" />
        </mxCell>
        <mxCell id="8rW_p4K-CDQeqq16cBs7-58" value="scope" style="edgeLabel;html=1;align=center;verticalAlign=middle;resizable=0;points=[];" vertex="1" connectable="0" parent="8rW_p4K-CDQeqq16cBs7-57">
          <mxGeometry x="-0.0478" y="-3" relative="1" as="geometry">
            <mxPoint as="offset" />
          </mxGeometry>
        </mxCell>
        <mxCell id="8rW_p4K-CDQeqq16cBs7-35" value="NodeBranchElse" style="ellipse;whiteSpace=wrap;html=1;aspect=fixed;" vertex="1" parent="1">
          <mxGeometry x="640" y="520" width="80" height="80" as="geometry" />
        </mxCell>
        <mxCell id="8rW_p4K-CDQeqq16cBs7-73" style="rounded=0;orthogonalLoop=1;jettySize=auto;html=1;" edge="1" parent="1" source="8rW_p4K-CDQeqq16cBs7-42" target="8rW_p4K-CDQeqq16cBs7-67">
          <mxGeometry relative="1" as="geometry" />
        </mxCell>
        <mxCell id="qFZjPq3p0Fe61YFkKOj4-1" value="expr" style="edgeLabel;html=1;align=center;verticalAlign=middle;resizable=0;points=[];" vertex="1" connectable="0" parent="8rW_p4K-CDQeqq16cBs7-73">
          <mxGeometry x="-0.1915" y="1" relative="1" as="geometry">
            <mxPoint as="offset" />
          </mxGeometry>
        </mxCell>
        <mxCell id="8rW_p4K-CDQeqq16cBs7-74" style="rounded=0;orthogonalLoop=1;jettySize=auto;html=1;" edge="1" parent="1" source="8rW_p4K-CDQeqq16cBs7-42" target="8rW_p4K-CDQeqq16cBs7-68">
          <mxGeometry relative="1" as="geometry" />
        </mxCell>
        <mxCell id="qFZjPq3p0Fe61YFkKOj4-2" value="expr" style="edgeLabel;html=1;align=center;verticalAlign=middle;resizable=0;points=[];" vertex="1" connectable="0" parent="8rW_p4K-CDQeqq16cBs7-74">
          <mxGeometry x="0.017" y="4" relative="1" as="geometry">
            <mxPoint as="offset" />
          </mxGeometry>
        </mxCell>
        <mxCell id="8rW_p4K-CDQeqq16cBs7-75" style="rounded=0;orthogonalLoop=1;jettySize=auto;html=1;" edge="1" parent="1" source="8rW_p4K-CDQeqq16cBs7-42" target="8rW_p4K-CDQeqq16cBs7-69">
          <mxGeometry relative="1" as="geometry" />
        </mxCell>
        <mxCell id="qFZjPq3p0Fe61YFkKOj4-3" value="expr" style="edgeLabel;html=1;align=center;verticalAlign=middle;resizable=0;points=[];" vertex="1" connectable="0" parent="8rW_p4K-CDQeqq16cBs7-75">
          <mxGeometry x="-0.2376" relative="1" as="geometry">
            <mxPoint as="offset" />
          </mxGeometry>
        </mxCell>
        <mxCell id="8rW_p4K-CDQeqq16cBs7-76" style="rounded=0;orthogonalLoop=1;jettySize=auto;html=1;" edge="1" parent="1" source="8rW_p4K-CDQeqq16cBs7-42" target="8rW_p4K-CDQeqq16cBs7-70">
          <mxGeometry relative="1" as="geometry" />
        </mxCell>
        <mxCell id="qFZjPq3p0Fe61YFkKOj4-4" value="expr" style="edgeLabel;html=1;align=center;verticalAlign=middle;resizable=0;points=[];" vertex="1" connectable="0" parent="8rW_p4K-CDQeqq16cBs7-76">
          <mxGeometry x="-0.2831" y="2" relative="1" as="geometry">
            <mxPoint as="offset" />
          </mxGeometry>
        </mxCell>
        <mxCell id="8rW_p4K-CDQeqq16cBs7-42" value="NodeBinExpr" style="ellipse;whiteSpace=wrap;html=1;aspect=fixed;" vertex="1" parent="1">
          <mxGeometry x="-80" y="690" width="80" height="80" as="geometry" />
        </mxCell>
        <mxCell id="8rW_p4K-CDQeqq16cBs7-49" style="edgeStyle=orthogonalEdgeStyle;rounded=0;orthogonalLoop=1;jettySize=auto;html=1;entryX=0.975;entryY=0.775;entryDx=0;entryDy=0;entryPerimeter=0;" edge="1" parent="1" source="8rW_p4K-CDQeqq16cBs7-31" target="8rW_p4K-CDQeqq16cBs7-21">
          <mxGeometry relative="1" as="geometry">
            <Array as="points">
              <mxPoint x="550" y="630" />
              <mxPoint x="320" y="630" />
              <mxPoint x="320" y="582" />
            </Array>
          </mxGeometry>
        </mxCell>
        <mxCell id="8rW_p4K-CDQeqq16cBs7-50" value="expr" style="edgeLabel;html=1;align=center;verticalAlign=middle;resizable=0;points=[];" vertex="1" connectable="0" parent="8rW_p4K-CDQeqq16cBs7-49">
          <mxGeometry x="-0.4" y="2" relative="1" as="geometry">
            <mxPoint as="offset" />
          </mxGeometry>
        </mxCell>
        <mxCell id="8rW_p4K-CDQeqq16cBs7-102" style="rounded=0;orthogonalLoop=1;jettySize=auto;html=1;" edge="1" parent="1" source="8rW_p4K-CDQeqq16cBs7-59" target="8rW_p4K-CDQeqq16cBs7-20">
          <mxGeometry relative="1" as="geometry" />
        </mxCell>
        <mxCell id="8rW_p4K-CDQeqq16cBs7-103" value="intLiteral" style="edgeLabel;html=1;align=center;verticalAlign=middle;resizable=0;points=[];" vertex="1" connectable="0" parent="8rW_p4K-CDQeqq16cBs7-102">
          <mxGeometry x="-0.4316" y="3" relative="1" as="geometry">
            <mxPoint as="offset" />
          </mxGeometry>
        </mxCell>
        <mxCell id="8rW_p4K-CDQeqq16cBs7-59" value="NodeTermIntLiteral" style="ellipse;whiteSpace=wrap;html=1;aspect=fixed;" vertex="1" parent="1">
          <mxGeometry x="400" y="830" width="80" height="80" as="geometry" />
        </mxCell>
        <mxCell id="8rW_p4K-CDQeqq16cBs7-104" style="rounded=0;orthogonalLoop=1;jettySize=auto;html=1;" edge="1" parent="1" source="8rW_p4K-CDQeqq16cBs7-61" target="8rW_p4K-CDQeqq16cBs7-20">
          <mxGeometry relative="1" as="geometry" />
        </mxCell>
        <mxCell id="8rW_p4K-CDQeqq16cBs7-105" value="identifier" style="edgeLabel;html=1;align=center;verticalAlign=middle;resizable=0;points=[];" vertex="1" connectable="0" parent="8rW_p4K-CDQeqq16cBs7-104">
          <mxGeometry x="-0.4503" y="2" relative="1" as="geometry">
            <mxPoint as="offset" />
          </mxGeometry>
        </mxCell>
        <mxCell id="8rW_p4K-CDQeqq16cBs7-61" value="NodeTermIdentifier" style="ellipse;whiteSpace=wrap;html=1;aspect=fixed;" vertex="1" parent="1">
          <mxGeometry x="580" y="830" width="80" height="80" as="geometry" />
        </mxCell>
        <mxCell id="8rW_p4K-CDQeqq16cBs7-62" value="NodeTermParen" style="ellipse;whiteSpace=wrap;html=1;aspect=fixed;" vertex="1" parent="1">
          <mxGeometry x="260" y="830" width="80" height="80" as="geometry" />
        </mxCell>
        <mxCell id="8rW_p4K-CDQeqq16cBs7-67" value="NodeBinExprAdd" style="ellipse;whiteSpace=wrap;html=1;aspect=fixed;" vertex="1" parent="1">
          <mxGeometry x="-425" y="830" width="80" height="80" as="geometry" />
        </mxCell>
        <mxCell id="8rW_p4K-CDQeqq16cBs7-68" value="NodeBinExprSub" style="ellipse;whiteSpace=wrap;html=1;aspect=fixed;" vertex="1" parent="1">
          <mxGeometry x="-290" y="830" width="80" height="80" as="geometry" />
        </mxCell>
        <mxCell id="8rW_p4K-CDQeqq16cBs7-98" style="edgeStyle=orthogonalEdgeStyle;rounded=0;orthogonalLoop=1;jettySize=auto;html=1;entryX=0.5;entryY=1;entryDx=0;entryDy=0;exitX=0.675;exitY=0.988;exitDx=0;exitDy=0;exitPerimeter=0;" edge="1" parent="1" source="8rW_p4K-CDQeqq16cBs7-69" target="8rW_p4K-CDQeqq16cBs7-21">
          <mxGeometry relative="1" as="geometry" />
        </mxCell>
        <mxCell id="8rW_p4K-CDQeqq16cBs7-99" value="rhs" style="edgeLabel;html=1;align=center;verticalAlign=middle;resizable=0;points=[];" vertex="1" connectable="0" parent="8rW_p4K-CDQeqq16cBs7-98">
          <mxGeometry x="-0.725" y="2" relative="1" as="geometry">
            <mxPoint as="offset" />
          </mxGeometry>
        </mxCell>
        <mxCell id="8rW_p4K-CDQeqq16cBs7-69" value="NodeBinExprMul" style="ellipse;whiteSpace=wrap;html=1;aspect=fixed;" vertex="1" parent="1">
          <mxGeometry x="-140" y="830" width="80" height="80" as="geometry" />
        </mxCell>
        <mxCell id="8rW_p4K-CDQeqq16cBs7-96" style="rounded=0;orthogonalLoop=1;jettySize=auto;html=1;entryX=0.363;entryY=1.013;entryDx=0;entryDy=0;entryPerimeter=0;exitX=1;exitY=0;exitDx=0;exitDy=0;" edge="1" parent="1" source="8rW_p4K-CDQeqq16cBs7-70" target="8rW_p4K-CDQeqq16cBs7-21">
          <mxGeometry relative="1" as="geometry" />
        </mxCell>
        <mxCell id="8rW_p4K-CDQeqq16cBs7-97" value="rhs" style="edgeLabel;html=1;align=center;verticalAlign=middle;resizable=0;points=[];" vertex="1" connectable="0" parent="8rW_p4K-CDQeqq16cBs7-96">
          <mxGeometry x="-0.7606" y="-2" relative="1" as="geometry">
            <mxPoint as="offset" />
          </mxGeometry>
        </mxCell>
        <mxCell id="8rW_p4K-CDQeqq16cBs7-70" value="NodeBinExprDiv" style="ellipse;whiteSpace=wrap;html=1;aspect=fixed;" vertex="1" parent="1">
          <mxGeometry x="-10" y="830" width="80" height="80" as="geometry" />
        </mxCell>
        <mxCell id="8rW_p4K-CDQeqq16cBs7-77" style="edgeStyle=orthogonalEdgeStyle;rounded=0;orthogonalLoop=1;jettySize=auto;html=1;entryX=0;entryY=0;entryDx=0;entryDy=0;exitX=0.338;exitY=0.063;exitDx=0;exitDy=0;exitPerimeter=0;" edge="1" parent="1" source="8rW_p4K-CDQeqq16cBs7-67" target="8rW_p4K-CDQeqq16cBs7-21">
          <mxGeometry relative="1" as="geometry">
            <Array as="points">
              <mxPoint x="-398" y="532" />
            </Array>
          </mxGeometry>
        </mxCell>
        <mxCell id="8rW_p4K-CDQeqq16cBs7-78" value="lhs" style="edgeLabel;html=1;align=center;verticalAlign=middle;resizable=0;points=[];" vertex="1" connectable="0" parent="8rW_p4K-CDQeqq16cBs7-77">
          <mxGeometry x="0.0214" y="1" relative="1" as="geometry">
            <mxPoint as="offset" />
          </mxGeometry>
        </mxCell>
        <mxCell id="8rW_p4K-CDQeqq16cBs7-79" style="edgeStyle=orthogonalEdgeStyle;rounded=0;orthogonalLoop=1;jettySize=auto;html=1;entryX=0.038;entryY=0.3;entryDx=0;entryDy=0;entryPerimeter=0;exitX=0.675;exitY=0.025;exitDx=0;exitDy=0;exitPerimeter=0;" edge="1" parent="1" source="8rW_p4K-CDQeqq16cBs7-67" target="8rW_p4K-CDQeqq16cBs7-21">
          <mxGeometry relative="1" as="geometry">
            <Array as="points">
              <mxPoint x="-370" y="832" />
              <mxPoint x="-370" y="544" />
            </Array>
          </mxGeometry>
        </mxCell>
        <mxCell id="8rW_p4K-CDQeqq16cBs7-80" value="rhs" style="edgeLabel;html=1;align=center;verticalAlign=middle;resizable=0;points=[];" vertex="1" connectable="0" parent="8rW_p4K-CDQeqq16cBs7-79">
          <mxGeometry x="-0.0312" y="-3" relative="1" as="geometry">
            <mxPoint as="offset" />
          </mxGeometry>
        </mxCell>
        <mxCell id="8rW_p4K-CDQeqq16cBs7-81" style="edgeStyle=orthogonalEdgeStyle;rounded=0;orthogonalLoop=1;jettySize=auto;html=1;entryX=-0.012;entryY=0.425;entryDx=0;entryDy=0;entryPerimeter=0;exitX=0.363;exitY=0.05;exitDx=0;exitDy=0;exitPerimeter=0;" edge="1" parent="1" source="8rW_p4K-CDQeqq16cBs7-68" target="8rW_p4K-CDQeqq16cBs7-21">
          <mxGeometry relative="1" as="geometry">
            <Array as="points">
              <mxPoint x="-261" y="554" />
            </Array>
          </mxGeometry>
        </mxCell>
        <mxCell id="8rW_p4K-CDQeqq16cBs7-82" value="lhs" style="edgeLabel;html=1;align=center;verticalAlign=middle;resizable=0;points=[];" vertex="1" connectable="0" parent="8rW_p4K-CDQeqq16cBs7-81">
          <mxGeometry x="0.1605" y="-5" relative="1" as="geometry">
            <mxPoint as="offset" />
          </mxGeometry>
        </mxCell>
        <mxCell id="8rW_p4K-CDQeqq16cBs7-83" style="edgeStyle=orthogonalEdgeStyle;rounded=0;orthogonalLoop=1;jettySize=auto;html=1;entryX=0.013;entryY=0.613;entryDx=0;entryDy=0;entryPerimeter=0;exitX=0.638;exitY=0.013;exitDx=0;exitDy=0;exitPerimeter=0;" edge="1" parent="1" source="8rW_p4K-CDQeqq16cBs7-68" target="8rW_p4K-CDQeqq16cBs7-21">
          <mxGeometry relative="1" as="geometry" />
        </mxCell>
        <mxCell id="8rW_p4K-CDQeqq16cBs7-84" value="rhs" style="edgeLabel;html=1;align=center;verticalAlign=middle;resizable=0;points=[];" vertex="1" connectable="0" parent="8rW_p4K-CDQeqq16cBs7-83">
          <mxGeometry x="0.3214" relative="1" as="geometry">
            <mxPoint as="offset" />
          </mxGeometry>
        </mxCell>
        <mxCell id="8rW_p4K-CDQeqq16cBs7-94" style="rounded=0;orthogonalLoop=1;jettySize=auto;html=1;exitX=0.5;exitY=0;exitDx=0;exitDy=0;entryX=0;entryY=1;entryDx=0;entryDy=0;" edge="1" parent="1" source="8rW_p4K-CDQeqq16cBs7-70" target="8rW_p4K-CDQeqq16cBs7-21">
          <mxGeometry relative="1" as="geometry" />
        </mxCell>
        <mxCell id="8rW_p4K-CDQeqq16cBs7-95" value="lhs" style="edgeLabel;html=1;align=center;verticalAlign=middle;resizable=0;points=[];" vertex="1" connectable="0" parent="8rW_p4K-CDQeqq16cBs7-94">
          <mxGeometry x="-0.6085" relative="1" as="geometry">
            <mxPoint x="-1" as="offset" />
          </mxGeometry>
        </mxCell>
        <mxCell id="8rW_p4K-CDQeqq16cBs7-100" style="edgeStyle=orthogonalEdgeStyle;rounded=0;orthogonalLoop=1;jettySize=auto;html=1;entryX=0.713;entryY=0.925;entryDx=0;entryDy=0;entryPerimeter=0;exitX=0.388;exitY=1.025;exitDx=0;exitDy=0;exitPerimeter=0;" edge="1" parent="1" source="8rW_p4K-CDQeqq16cBs7-69" target="8rW_p4K-CDQeqq16cBs7-21">
          <mxGeometry relative="1" as="geometry">
            <Array as="points">
              <mxPoint x="-109" y="960" />
              <mxPoint x="227" y="960" />
            </Array>
          </mxGeometry>
        </mxCell>
        <mxCell id="8rW_p4K-CDQeqq16cBs7-101" value="lhs" style="edgeLabel;html=1;align=center;verticalAlign=middle;resizable=0;points=[];" vertex="1" connectable="0" parent="8rW_p4K-CDQeqq16cBs7-100">
          <mxGeometry x="-0.728" y="-2" relative="1" as="geometry">
            <mxPoint as="offset" />
          </mxGeometry>
        </mxCell>
        <mxCell id="8rW_p4K-CDQeqq16cBs7-106" style="rounded=0;orthogonalLoop=1;jettySize=auto;html=1;entryX=0.813;entryY=0.938;entryDx=0;entryDy=0;entryPerimeter=0;" edge="1" parent="1" source="8rW_p4K-CDQeqq16cBs7-62" target="8rW_p4K-CDQeqq16cBs7-21">
          <mxGeometry relative="1" as="geometry" />
        </mxCell>
        <mxCell id="8rW_p4K-CDQeqq16cBs7-107" value="expr" style="edgeLabel;html=1;align=center;verticalAlign=middle;resizable=0;points=[];" vertex="1" connectable="0" parent="8rW_p4K-CDQeqq16cBs7-106">
          <mxGeometry x="-0.5295" y="-2" relative="1" as="geometry">
            <mxPoint as="offset" />
          </mxGeometry>
        </mxCell>
      </root>
    </mxGraphModel>
  </diagram>
</mxfile>
